<svg width="601" height="200" viewBox="0 0 601 200" fill="none" xmlns="http://www.w3.org/2000/svg">
<g clip-path="url(#clip0)">
<path d="M0.856934 0.47998H59.3435V200H0.856934V0.47998ZM71.6257 0.47998H145.904V44.85H71.6257V0.47998ZM71.6257 77.04H132.159V121.41H71.6257V77.04ZM71.6257 155.63H145.904V200H71.6257V155.63ZM181.057 0.47998H239.544V200H181.057V0.47998ZM251.826 155.63H254.165C263.719 155.63 270.445 155.243 274.343 154.47C278.437 153.503 281.459 151.377 283.409 148.09C285.553 144.61 286.723 139.1 286.918 131.56C287.308 121.893 287.503 111.453 287.503 100.24C287.503 89.22 287.308 78.6833 286.918 68.63C286.529 61.09 285.261 55.58 283.116 52.1C281.167 48.62 277.95 46.4933 273.466 45.72C268.983 45.14 262.549 44.85 254.165 44.85H251.826V0.47998H254.165C269.762 0.47998 282.727 1.15665 293.059 2.50997C303.586 3.86331 312.263 5.98998 319.085 8.88998C325.715 11.79 330.978 15.7533 334.877 20.78C338.776 25.8067 341.603 32.09 343.357 39.63C344.917 46.3967 345.892 54.42 346.282 63.7C346.867 72.7867 347.159 84.9667 347.159 100.24C347.159 115.707 346.867 127.983 346.282 137.07C345.892 146.157 344.917 154.083 343.357 160.85C341.603 168.39 338.776 174.673 334.877 179.7C330.978 184.727 325.715 188.69 319.085 191.59C312.263 194.49 303.586 196.617 293.059 197.97C282.727 199.323 269.762 200 254.165 200H251.826V155.63ZM379.821 9.17997V0.47998H433.628L517.849 177.96L508.199 200H470.182L379.821 9.17997ZM545.045 116.19H543.876L524.283 163.17L499.133 109.81L545.045 0.47998H600.608V200H545.045V116.19ZM379.821 37.89L433.628 151.57V200H379.821V37.89Z" fill="#E3E3E3" fill-opacity="0.25"/>
<path d="M0.856934 0.47998H59.3435V200H0.856934V0.47998ZM71.6257 0.47998H145.904V44.85H71.6257V0.47998ZM71.6257 77.04H132.159V121.41H71.6257V77.04ZM71.6257 155.63H145.904V200H71.6257V155.63ZM181.057 0.47998H239.544V200H181.057V0.47998ZM251.826 155.63H254.165C263.719 155.63 270.445 155.243 274.343 154.47C278.437 153.503 281.459 151.377 283.409 148.09C285.553 144.61 286.723 139.1 286.918 131.56C287.308 121.893 287.503 111.453 287.503 100.24C287.503 89.22 287.308 78.6833 286.918 68.63C286.529 61.09 285.261 55.58 283.116 52.1C281.167 48.62 277.95 46.4933 273.466 45.72C268.983 45.14 262.549 44.85 254.165 44.85H251.826V0.47998H254.165C269.762 0.47998 282.727 1.15665 293.059 2.50997C303.586 3.86331 312.263 5.98998 319.085 8.88998C325.715 11.79 330.978 15.7533 334.877 20.78C338.776 25.8067 341.603 32.09 343.357 39.63C344.917 46.3967 345.892 54.42 346.282 63.7C346.867 72.7867 347.159 84.9667 347.159 100.24C347.159 115.707 346.867 127.983 346.282 137.07C345.892 146.157 344.917 154.083 343.357 160.85C341.603 168.39 338.776 174.673 334.877 179.7C330.978 184.727 325.715 188.69 319.085 191.59C312.263 194.49 303.586 196.617 293.059 197.97C282.727 199.323 269.762 200 254.165 200H251.826V155.63ZM379.821 9.17997V0.47998H433.628L517.849 177.96L508.199 200H470.182L379.821 9.17997ZM545.045 116.19H543.876L524.283 163.17L499.133 109.81L545.045 0.47998H600.608V200H545.045V116.19ZM379.821 37.89L433.628 151.57V200H379.821V37.89Z" fill="#E3E3E3" fill-opacity="0.25"/>
<path d="M122.704 0.5H145.742V45H122.704V0.5ZM122.704 77H132.22V121.5H122.704V77ZM121.202 155.15H147.085V199.52H121.202V155.15Z" fill="white"/>
<path d="M180.2 0H238.687V199.52H180.2V0ZM250.969 155.15H253.308C262.862 155.15 269.588 154.763 273.486 153.99C277.58 153.023 280.602 150.897 282.552 147.61C284.696 144.13 285.866 138.62 286.061 131.08C286.451 121.413 286.646 110.973 286.646 99.76C286.646 88.74 286.451 78.2033 286.061 68.15C285.672 60.61 284.404 55.1 282.259 51.62C280.31 48.14 277.093 46.0133 272.609 45.24C268.126 44.66 261.692 44.37 253.308 44.37L272.609 45.24L279.22 47.02L282.259 51.62L279.22 48.02L275.372 45.9426L269.092 44.8764L251.062 44.37L250.06 0C265.657 0 281.87 0.676667 292.202 2.02999C302.73 3.38333 311.406 5.51 318.228 8.41C324.858 11.31 330.121 15.2733 334.02 20.3C337.919 25.3267 340.746 31.61 342.5 39.15C344.06 45.9167 345.035 53.94 345.425 63.22C346.01 72.3067 346.302 84.4867 346.302 99.76C346.302 115.227 346.01 127.503 345.425 136.59C345.035 145.677 344.06 153.603 342.5 160.37C340.746 167.91 337.919 174.193 334.02 179.22C330.121 184.247 324.858 188.21 318.228 191.11C311.406 194.01 302.73 196.137 292.202 197.49C281.87 198.843 268.905 199.52 253.308 199.52H250.969V155.15ZM378.964 8.69999V0H432.771L516.992 177.48L507.342 199.52H469.325L378.964 8.69999ZM544.188 115.71H543.019L523.426 162.69L498.276 109.33L544.188 0H599.751V199.52H544.188V115.71ZM378.964 37.41L432.771 151.09V199.52H378.964V37.41Z" fill="#E7E7E7" fill-opacity="0.09"/>
<path d="M433.722 151.5L391 62V200H433.722V151.5Z" fill="white"/>
<g filter="url(#filter0_b)">
<path d="M544.296 0L498.83 109.415L524 163L544.296 118V200H601V0H544.296Z" fill="#C4C4C4" fill-opacity="0.3"/>
<path d="M544.296 0L498.83 109.415L524 163L544.296 118V200H601V0H544.296Z" stroke="white"/>
</g>
<path d="M239.398 1H222.871V200H239.398V1Z" fill="white"/>
<path d="M58 0H30V200H58V0Z" fill="white"/>
<path d="M543.5 59V-0.5H570.5V201L543.5 197.5V118V59Z" fill="white"/>
</g>
<defs>
<filter id="filter0_b" x="468.83" y="-30" width="162.17" height="260" filterUnits="userSpaceOnUse" color-interpolation-filters="sRGB">
<feFlood flood-opacity="0" result="BackgroundImageFix"/>
<feGaussianBlur in="BackgroundImage" stdDeviation="15"/>
<feComposite in2="SourceAlpha" operator="in" result="effect1_backgroundBlur"/>
<feBlend mode="normal" in="SourceGraphic" in2="effect1_backgroundBlur" result="shape"/>
</filter>
<clipPath id="clip0">
<rect width="601" height="200" fill="white"/>
</clipPath>
</defs>
</svg>
